<svg height="176.85" viewBox="0 0 240 176.85" width="240" xmlns="http://www.w3.org/2000/svg"><g fill="#fff"><path d="m234.77 3.35h2.18v.51h-.78v2.14h-.61v-2.14h-.78v-.51zm3.89 1.19 1.04-1.2h.29v2.66h-.59v-1.52l-.69.78h-.13l-.68-.77v1.51h-.6v-2.66h.29l1.05 1.2z"/><path d="m51.28 80.89c-.79 3.14-1.47 5.27-2.1 6.98l-.49-1.01c.89-1.71 1.59-3.36 2.59-5.97zm-.48 10.03s-.06.09-.08.14l1.15 2.39c.57-2.33 1.34-5.31 2.22-8.53 0 0-2.06 3.97-3.29 6zm-10.42-21.24c1.44-.31 2.97-.6 4.57-.87 0 0-2.36.15-4.79.42l.21.44zm18.4-15.25c-.4.64-3.79 5.78-11.64 10.73 0 0-1.13.83.48-2.55.28-.59 6.88-7.89 7.14-8.4-1.88 2.03-8.37 8.4-11.77 9.49 0 0 7.49-8.32 9.43-12.47 0 0-8.26 9.65-11.77 10.89 0 0 6.49-8.5 12.25-16.12 0 0-6.95 6.42-16.45 15.55l3.36 6.95c3.43-1.25 7.97-2.17 12.83-2.9.94-2.24 2.69-5.64 6.14-11.17zm-29.46-7.64.46.96c1.02-1.15 2.16-2.39 3.45-3.68 0 0-1.42.94-3.91 2.73zm4.61 9.55 2.46 5.08c.23-1.06 1.51-6.22 6.08-13.63 0 0-2.97 3.12-8.54 8.54zm31.45 17.12s.4 9.98-1.38 16.14c0 0-1.35 2.34-2.85 3.45 0 0 1.16-7.41 1.54-14.28 0 0-.83 8.69-3.31 13.31l-1.71.75s1.73-7.66 1.77-14.68c-.68 2.57-2.31 10.76-6.41 17.69l5.91 12.23 8.73-21.27c0-.11-.56-8.84-2.29-13.35zm-39.05-32.84 2.97-1.97-3.19 1.52zm6.13 12.67.7 1.44c.66-1.26 1.46-2.89 2.29-4.88 0 0-1.15 1.46-2.99 3.44zm-1.28-2.64c.37-.53.77-1.09 1.18-1.68 0 0-.51.39-1.46 1.12l.27.56zm105.46 6.71.33-.68c-.44-.39-.89-.77-1.38-1.06.36.57.71 1.15 1.06 1.74zm-1.63-6.34c-.16-.14-.32-.28-.49-.4-.07-.06-.15-.11-.23-.16.5.3 2.08 2.7 3.38 4.77l.49-1.01c-.69-.72-1.36-1.45-2.05-2.16-.35-.36-.71-.73-1.09-1.05zm1.25-3.72c.18.15.37.32.55.5.56.53 1.08 1.11 1.57 1.73.42.53.87 1.02 1.34 1.49l.45-.93c-.41-.36-.82-.7-1.2-1.02-.86-.66-1.75-1.27-2.71-1.77zm-34.12-25.28.95-.7s-1.51 4.73-1.14 7.49c0 0 2.4-7.18 5.65-11.33l1.64-.9s-4.07 7.19-2.71 10.53c1.31-3.08 4.88-11.12 11.3-15.83l-.33.97-1.79 3.05c1.6-.97 4.51-2.37 8.67-2.85 0 0-2.82 1.64-6.57 5.22 0 0 1.56-.64 3.4-1.26s5.19-3.74 10.07-2.6c-2.29.38-4.78 2.59-8.91 5.56.21-.15 4.88-3.45 11.71-3.23 0 0-1.67 1.24-2.65 2.41 0 0 2.57-.54 7.39 2.25 0 0-4.58.28-10.19.5 3.54 1.83 5.86 4.6 5.86 4.6l-1.56.33c-1.65-1.25-4.1-1.86-4.1-1.86s.57 1.03 2.35 3.34c0 0-2.06-2.14-8.87-3.65 0 0 3.86 1.38 7.87 4.93-2.85-1.42-6.79-3.14-12.61-3.66 0 0 5.97 2.16 11.6 5.06 0 0-2.79.6-2.95.59-.17-.01-3.63-1.43-9.1-2.89 0 0 3.3 1.99 7.63 3.74l-3.18.57s-3.34-.82-8.78-2.01c0 0 3.3 1.4 8.58 4.47l-2.65.29s-2.42-1.13-8.19-1.7c0 0 4.18 1.77 7.99 3.74l-2.18.62-3.03-.45 2.23 1.03-3.39.72s-2.58-.84-6.83-.52c0 0 4.89.65 10.34 3.27 0 0-3.42-.1-5.56.1l1.97 1.42c1.02-.25 2.05-.49 3.06-.81 1.78-.57 3.43-1.46 5.2-2.07 2.31-.8 4.71-1.07 7.09-1.07 5.88 0 11.03 1.58 15.85 4.21l18.2-37.6h-52.89l-8.83 19.17c.7-1.16 2.08-2.98 2.37-3.18zm16.58 69.06s-1.01-.52-1.08-.52c-1.03-4.29-3.72-12.92-8.44-21.99 1.7 4.33 2.43 10.27 2.88 17.04l-1.99-3.53s-.18-1.14-3.93-8.74c0 0 .54 3.47 1.15 8.83l-2.27-2.93s-.74-2.74-2.5-6.86-2.83-6.24-2.83-6.24.12.83 1.39 7.77l-1.08-.52s-1.86-.47-4.76-7.4c-.02-.04-.07-.07-.1-.03-.26.33.49 4.74.8 6.18 0 0-2.08-1.57-4.68-8.59-.06-.18-.21 1.22-.3 3.69 3.25 3.48 6.45 7.01 9.05 10.91-2.1-1.41-3.58-1.64-3.58-1.64 3.43 3.54 6.1 7.26 8.31 11.63 0 0-.99-1.26-3.38-2.5 1.7 2.67 3.04 5.7 4.17 8.63-.02.64-.03.95-.05 1.59-1.91-2.64-4.43-3.77-4.43-3.77 4.25 5.08 4.87 12.23 5.24 18.44-.26.61-.39.92-.66 1.53-.58-4.96-3.55-7.91-3.55-7.91 1.18 4.11 1.52 8.26 1.59 12.51-.23.47-.34.71-.57 1.19-.63-3.33-1.99-5.34-1.99-5.34.63 3.95.07 7.72-.64 11.63 0 0-.09-.87-.74-2.63-.58 5.12-2.01 9.48-4.07 14.21-.25.18-.37.27-.62.46.72-3.09.99-6.65.65-9.81-.41 6.68-3.64 13.12-7.23 18.71-.31.07-.46.11-.77.18.99-2.98 1.61-6.23 1.97-9.34-.83 2.09-1.86 4.09-3.02 6.03-1.14 1.9-2.41 3.74-3.75 5.52-.04-.28-.06-.42-.1-.7 1.7-4.48 2.88-8.94 3.84-13.61.03-.14.06-.28.09-.43 0 0-.03.08-.09.21-.31.7-1.49 3.21-4.11 7.2-.14-.59-.21-.89-.36-1.48 0 0 .63-.96 2.27-6.3-.96.9-1.45 1.36-2.43 2.26 1.71-3.44 3.24-6.89 4.63-10.41.69-1.74 1.34-3.49 1.97-5.26-.64 1.12-1.29 2.21-1.97 3.28-1.95 3.1-4.07 6.03-6.48 8.9 1.83-4.08 3.34-8.28 4.67-12.53 0 0-1.58 1.81-5.27 6.12-.02-.88-.03-1.33-.06-2.21 0 0 .86-1.82 3.01-6.22 0 0-1.41 2.08-3.55 4.48.06-.45.09-.68.14-1.14 2.44-4.39 5.1-8.67 7.53-13.06.46-.83.92-1.67 1.36-2.51-.45.68-.9 1.34-1.36 2.01-2.62 3.87-5.35 7.65-8.18 11.39 1.07-3.58 2.25-7.05 3.57-10.56 0 0-1.34 1.17-2.99 3.26.17-4.21 2.63-7.91 4.47-11.52 1.82-3.56 2.72-5.26 3.13-6.01.23-.43.31-.56.31-.56-.1.12-.2.25-.31.38-3.42 4.21-6.03 8.94-8.65 13.64.88-5.16 2-9.96 3.95-14.84 0 0-2.09 2.2-4.5 5.93-.07-.48-.1-.73-.17-1.21.44-2.95 1.57-6.15 3-8.78 0 0-1.46 1.65-3.45 3.81 0-.28 0-.42 0-.71 2.43-4.72 5.38-8.85 8.65-13.06-2.78 2.8-5.21 5.64-7.66 8.71-.04-.31-.06-.46-.09-.77.46-2.54 1.15-5.03 1.94-7.5-.43.89-.92 1.91-1.45 3.04-2.24 4.77-6.25 14.73-10.19 26.67-.63 1.93-1.28 3.94-1.92 6.01-.36 1.68-.73 3.36-1.02 5.06-.1.58-.19 1.16-.28 1.75l20.71 42.84 37.07-76.59c-1.71-4.05-3.93-8.9-6.3-13.07 0 0 2.88 7.5 2.44 17.72zm8.17-13.57.43-.89c-.63-1.43-1.31-2.82-2.01-4.12 0 0 .68 1.87 1.58 5.01zm-2.31 4.77.34-.71-.66-1.1zm2.83-25.42c-2.14-1.76-4.22-4.85-6.72-6.19-.58-.31-1.18-.61-1.84-.77-.11-.03-.23-.05-.34-.08 0 0 .02.01.03.02 1.1.65 2 1.66 2.81 2.6 1.02 1.19 1.97 2.45 2.79 3.78.2.33.6 1.3.97 2.15 1.8.5 3.49 1.16 5.09 1.91.1 0-2.16-2.91-2.78-3.42zm4.3-1.3c-2.38-2.14-4.23-4.82-6.75-6.82 1.6 1.99 3.25 3.94 4.81 5.98.55.72 2.25 4.94 3.27 7.08.38.22.75.45 1.12.68l1.33-2.74c-1.54-1.77-3.44-3.87-3.78-4.17zm-15.26-1.18c-.85-.87-1.79-1.68-2.89-2.27-.5-.27-1.01-.53-1.55-.73-.23-.09-.8-.47-.4.02 1.15 1.42 2.73 2.52 3.97 3.88.59.65 1.17 1.32 1.69 2.02.77 0 1.52.03 2.26.08-1.2-.81-2.06-1.98-3.07-3.01zm-15.91 3.49c-1-.78-2.11-1.65-2.93-2.3-.06.01-.12.03-.18.04.45.56.99 1.26 1.52 1.94.53.11 1.06.22 1.6.32zm-72.62-13.97.78-.93-1.02.43zm67.48-1.03c-.54-4.58.09-7.19.99-10.31l-3.02 6.55c.91 1.11 2.11 4.39 2.03 3.76zm-6.25 20.65c-.07.18-.14.37-.22.56-.09.22-.17.45-.24.7.39.42.78.84 1.17 1.25-.23-.67-.47-1.5-.7-2.51zm3.59-17.15c.2-.64-.3-3.03-.37-5.09l-1 2.17c.49 1.1 1.26 3.28 1.38 2.92zm28.15 11.16c.37.05.73.1 1.09.16-.3-.57-.86-1.32-1.39-1.78-.47-.42-.94-.84-1.39-1.28-.61-.6 0 .05.09.19.12.19.24.37.37.55.49.69 1 1.36 1.24 2.17zm-51.63-14.71c1.2-.26 2.39-.8 3.48-1.36.77-.39 1.57-.79 2.3-1.28-3.03 1.13-6.11 1.24-8.74-.08-.09-.05-.66-.29-.57-.33.19-.1 2.68-.18 4.14-1.38.92-.75-4.8.73-5.2.88-.14.05-.22-.11-.17-.22.55-1.13 1.65-1.65 2.65-2.31-2.69-.64-4.43-.06-7.87-.06-.1 0-.88-.37-.8-.44 1.03-1.01 3.78-1.55 3.78-1.55l-2.69-.05-4.77 1.2-1.73-.77c-.07-.45 3.17-2.16 5.12-3.43-1.6-.14-3.32.44-4.91.61-2.04.21-4.01.79-6.01 1.26-.12.03-.24-.13-.13-.22 1.39-1.16 2.98-1.94 4.6-2.73 1.77-.86 3.19-1.88 4.73-3.1 1.36-1.09-11.36 4.1-11.3 3.96.22-.52.85-1.4 1.15-1.87-.66.08-1.7.64-2.33.83-.33-.12-.67-.23-1.01-.33.71-.86 1.42-1.72 2.13-2.58-1.68.75-3.4 1.4-5.08 2.13-.43-.11-.87-.19-1.3-.27 1.24-1.56 3.46-2.61 5.03-3.6 1.91-1.21-6.35 1.36-9.84 4.16 1.89.35 3.7.8 5.47 1.32 12.69 3.71 23.12 8.83 31.8 14.31.02-.3.16-.51.46-.6 1.74-.5 3.94 0 5.84-1.5.45-.36-1.15-.02-1.73.03-2.16.19-4.59.71-6.56-.38-.11-.06-.09-.25.04-.27zm157.52 61.33c-.71-7.16-1.89-13.6-1.89-13.6-.14 11.33-1.63 17.19-1.63 17.19l-.57-.63c-.14-10.55-1.41-19.47-2.22-23.22.49 9.99-.3 18.49-.3 18.49l-.27-.59c-.6-6.75-.94-8.38-1.58-12.09-.63-3.65-1.41-7.67-1.33-9.33-.27 4.58-.13 9.73-.01 12.44 1.76 5.64 4 13.04 5.97 19.7l2.74 7.65c.45 1.45.93 2.87 1.67 4.18v-26.9c-.15-1.04-.32-2.11-.32-2.11.13 4.37-.26 8.82-.26 8.82zm-120.36-58.96c1.39-.56 2.8-1.04 4.23-1.45.36-.1.72-.19 1.08-.28-1.36.09-5.53.4-9.09 1.21 0 0 1.56.11 3.78.52zm-3.63 8.2c-.34-.21 4.55 4.23 4.63 4.27.46.27.75.5.89.7.74-.07 1.49-.18 2.25-.33.16-.03.32-.06.47-.09l-3.11-1.57c-1.63-.31-3.77-2.14-5.14-2.98zm-1.38-5.73c.42-.25.84-.5 1.27-.73-1.51.17-3.21.43-5.04.83.43-.08 1.67-.26 3.77-.1zm-30.99 7.7s-3.61 4.47-8.06 9.03c1.21-.11 2.35-.19 3.43-.26.78-1.43 2.65-4.9 4.64-8.78zm-44.37-36.08c-2.21.74-3.61 1.34-5.77 2.2-1.01.4-1.75.93-2.47 1.5l.52 1.08c2.63-1.52 5.77-2.33 7.72-4.78zm2.74-4.83c-1.93-1.14-4.52-.74-6.75-.82-.19 0-1.75-.9-1.57-.97 4.19-1.74 7.39-2.28 11.68-1.84.05.01 3.51.67 3.51.67l3.63 1s-.48-.56-.72-.69c-.63-.36-1.27-.66-1.96-.89-2.09-.71-4.31-1.05-6.33-1.95-.08-.04.03-.19.03-.19s5.94-1 9.71.3c1 .34 3.93 1.31 4.91 1.69.48.19.96.37 1.44.56.1.04.2.08.3.11-1.62-1.27-2.73-2.67-3.38-2.97s-2.27-.68-2.27-.68 2.32-.45 3.75-.23 5.32 2.11 6.74 3.88c.93 1.17-.27-.36 1.8 2.27-1.08-2.83-1.18-3.7-3.55-5.51-.12-.09-1.16-.7-1.16-.7s1.2.06 1.2.06c4.08 1.65 6.33 2.93 9.52 5.67.26.23 2.44 3.73 2.7 3.96.27.24-.11-1.77.15-1.53 2.23 2.08 4.31 4.37 6.33 6.79 1.31 1.54 2.59 3.2 3.8 5l-9.81-21.41h-52.88l6.7 13.86c1.84-1.49 4.23-3.2 5.28-3.59 2.18-.8 4.92-1.91 7.2-1.86zm7.73 11.72c.97-.78 2.06-1.41 3.01-2.2 1.06-.88 2.09-1.79 3.04-2.79.57-.6-2.69.15-4.9 1.88-2.63 2.06-3.89 3.48-7.01 4.66-.19.07-1.68.08-1.68.08s4.06-3.36 5.74-5.55c-3.8 2.69-7.06 4.73-11.53 6.33-.14.05-.65-.27-.55-.37 3.59-3.59 7.61-6.03 8.65-7.92 0 0-2.68 2.06-4.17 2.84-2.52 1.32-5.18 2.21-7.92 2.78l1.61 3.32c4.72-.36 8.79-.1 12.52.56.83-1.39 1.89-2.62 3.17-3.64zm19.58 38.94c.65-1.4 1.41-3.12 2.23-5.1 0 0-1.92 2.72-4.65 5.43.8-.11 1.61-.22 2.42-.33zm14.52 15.43c-.22-1.41-.96-6.01-1.75-8.09 0 0 1.09 6.9.52 10.58.44-.92.85-1.73 1.23-2.5zm-2.24-16.54c1.14-.05 2.16-.08 3.07-.1l3.27-6.9s-3.12 3.12-6.34 7.01zm-8.11.6c1.27-2.05 3.58-6.06 3.98-8.91 0 0-2.79 4.61-6.41 9.2.54-.07 1.08-.13 1.63-.2.27-.03.54-.06.8-.09zm12.14 12.18c.52-1.21.89-2.05 1.16-2.65.37-.89.1-1.74-.36-2.53-.6-1.03-.76-3.44-.96-3.31-.3.19-.47.53-.45.89.09 1.49.27 5.27.07 8.8.18-.39.36-.79.54-1.2zm40.93-19.22c.67-.09 1.33-.15 1.98-.19-1.7-1.39-3.58-2.91-5.2-3.25 1.03.64 2.2 2.07 3.23 3.44zm77.55-9.79c.72.83 1.27 1.46 2.27 2.58.8.02 2.03-.04 3.1-.47 0 0-3.23-.43-5.37-2.11zm-6.24 19.33c.48-.98 1.02-2.01 1.62-3.06 0 0-1.03.97-2.8 3.22.39-.06.79-.11 1.18-.16zm7.69-2.73s-.77.92-1.94 2.29c.3-.01.6-.02.89-.03.3-.71.65-1.46 1.05-2.26zm-4.78 2.44c.16-.29.33-.6.51-.91 0 0-.31.31-.87.94.12 0 .24-.02.36-.03zm11.17-10.96s-.94-.47-2.19-1.7c.46.53 1.28 1.46 1.71 1.97.22-.07.48-.27.48-.27zm3.14 28.34c-1.4-1.44.16 6.22 3.81 11 0 0-2.41-9.56-3.81-11zm-2.19-20.55s-.63.89-2.5 3.07c1.01.05 1.98.12 2.9.19.03-.9.14-1.91.4-2.92-.49-.21-.8-.34-.8-.34zm-2.12 12.65c-.14-2.3-.36-3.1-.36-3.1-.08 1.62-.24 3.22-.44 4.69.26-.53.53-1.06.79-1.58zm5.95-14.23c-.87-1.48-1.21-1.77-1.21-1.77s-.47-.13-1.05-.4c.66.92 1.19 1.75 1.53 2.47.21-.1.44-.2.73-.3zm-4.19 9.21c-.02.63-.05 1.22-.08 1.77.3-.57.61-1.14.91-1.7-.04-.14-.08-.29-.12-.44-.54.22-.72.37-.72.37zm-3.67-6.12s-.64.49-1.64 1.46c.34 0 .68.01 1.01.02.19-.45.4-.95.63-1.48zm-7.48 52.37s2.78-5.8 2.68-7.1-2.51 3.19-2.68 7.1zm39.19 34.88c-.2-.92-.4-1.84-.6-2.76l-1.06-3.25c-.06-.08-.11-.18-.12-.28 0-.06-.02-.11-.02-.17l-11-40.17c-.73-2.25-1.43-4.4-2.09-6.42.25 3.3.49 6.89.96 10.94 0 0-.62-4.51-5.73-13.89 0 0 4 12.3 4.91 22.23 0 0-1.76-5.94-6.87-15.77 0 0 4.52 11.74 5.76 21.93 0 0-2.5-6.43-9.03-14.25.37.53 5.62 11.34 8.42 21.52 0 0-2.12-3.82-5.73-8.35 0 0 3.42 6.8 4.97 12.87 0 0-3.9-5.6-10.17-13.12 0 0 2.17 4.73 4.78 9.27 2.25 3.93 3.83 6.86 4.77 12.31-1.66-2.68-2.56-3.85-8.18-7.77 0 0 4.88 7.58 6.17 13.02 0 0-1.35-2.3-5.32-6.3 0 0 3.01 4.23 4.82 9.42 0 0-1.14-.82-4.14-2.78 0 0 .96 1.67 3.26 4.26 0 0-3.24-.87-5.68-3.24 0 0 1.72 3.92 3.51 6.37l-3-.87s1.76 6.36 3.49 8.88c0 0-4.62-4.9-6.5-6.67 0 0-.38 1.53-.64 4.53 0 0-1.31-1.97-2.22-5.88 0 0-.59 1.76-1.36 4.68 0 0-1.3-3.97-.96-8.47 0 0-.88 2.17-1.45 6.19 0 0-1.66-3.67-1.99-11.1 0 0-.77 2.42-1.59 6.07-1.13-8.57.46-17.73.46-17.73s-1.9 4.76-2.95 8.33l-.73-1.05c-.4-6.48 1.03-18.11 1.03-18.11s-1.34 2.33-2.97 6.02l.02-3.61c.72-5.9 3.28-13.59 6.81-22.6.62-2.99-4.17 6.31-4.94 7.68-.77 1.36-1.26 1.19-1.07-.6.57-5.3 5.24-18.5 11.38-31.61-.05-4.06-.62-6.25-.62-6.25-1.85 9.5-4.5 14.85-4.5 14.85l-1.15.83c1.37-8.05 1.15-13.76 1.15-13.76-1.01 9.03-3.39 15.57-3.39 15.57l-.71.62c.66-4.2.62-11.42.62-11.42-1.45 9.6-3.39 11.37-4.63 14.02 1.41-7.53 1.45-14.22 1.19-18.01-2.2 11.42-5.77 17.6-5.77 17.6l-1.1.16c1.5-6.49 1.37-11.16 1.37-11.16-.85 3.19-1.87 5.72-2.74 7.55v78.13h52.9v-18.41zm6.03-152.4v176.83h-64.95v-171.31l-82.94 171.33-85.5-176.85h66.35l19.15 41.79 19.24-41.79h128.64zm-67.63 3.35h-58.88l-21.39 46.46-21.29-46.46h-58.86l80.16 165.81zm64.28 0h-58.26v170.14h58.26zm-49.43 56.53c-.03.06-1.79 1.45-6.15 5.93v3.49c.48-.15.95-.3 1.42-.43.95-2.35 2.56-5.83 4.73-8.99zm-6.15-14.8v2c1.48-.41 3.02-.67 4.56-.87-.56-.66-2.4-1-4.56-1.13zm.65-2.91-.09-.1c-.12-.12-.26-.21-.4-.3-.05-.03-.1-.05-.16-.08v.63s.08-.02.12-.03c.18-.04.35-.08.53-.12zm8.74 13.07c-4.22-2.15-7.67-3.92-8.5-4.25-.07-.03-.09-.13-.06-.18.76-1.09 2.33-.73 3.18-1.59-.63-.11-2.3-.15-4.01-.13v5.13c.87.04 1.77.09 2.71.16 2.37.17 4.59.47 6.68.86zm-9.39 6.55v.74c.42-.7.89-1.46 1.42-2.27 0 0-.49.48-1.42 1.53zm5.07 6.17c.57-1.46 1.26-3.1 2.08-4.84 0 0-2.48 2.31-4.81 5.5.92-.25 1.83-.46 2.73-.66zm-3.06-33.19c-.97-1.45-1.38-4.79-1.32-4.72 1.35 1.76 2.83 3.43 4.26 5.13 1.2 1.42 1.86 3.17 2.69 4.79.2.4.43.78.67 1.16.05.07.1.14.14.21-.3-.66-.62-4.67-.61-5.99 0-.1.19-.2.21-.09.47 2.42 2.69 5.67 5.5 9.13.66.17 3.06.7 5.63.32 0 0-3.69-1.67-5.07-2.96-1.39-1.3-2.06-3.29-2.06-3.29s1.57.95 3.64 1.33c0 0-2.77-1.84-5.31-5.34l.08-.69s3.13 1.83 6.18 2.3c0 0-4.58-2.05-7.63-6.08l-.26-1.2s1.25 1.11 5.32 2.54c0 0-3.72-2.55-6.08-6.68 0 0 .88.84 2.11 1.72 0 0-1.35-2.01-1.79-5.76 0 0 2.15 3.42 5.9 6.72 0 0-3.81-6.57-4.31-11.57l.36-.48s1.17 2.67 3.67 6.02c-2.57-6.36-2.36-9.53-.13-12.85l.78.95c-.56 4.78 1.19 7.28 1.19 7.28 1.03-5.12 3.71-6.77 3.71-6.77l.44.64c-2.1 4.27-1.24 9.76-1.24 9.76s.75-3.97 3.72-6.45l.33.84c-.86 2.22-1.65 4.47-1.65 4.47 1.15-1.53 1.98-2.81 1.98-2.81l.34 1.42c-.07 5.1-1.55 11.12-1.55 11.12 2.2-3.74 2.98-6.49 3.08-8.28.37.87.89 2.18.89 2.18 1.08 4.91.75 10.09-1.74 14.84 2.15-1.97 3.15-3.63 3.54-7.83.99 4.57 1.03 9.23-.48 12.07 1.61-1.64 2.06-3.32 2.06-3.32.94 4.97.52 8.21-.78 11.07l1.31-1.57c.2 4.42-.15 5.41-.15 5.41l.84-1.15c.03 3.77-.35 6.78-.35 6.78l1.21 3.07s.06-.07.12-.11c-1.02-14.65-1.24-22.13.15-29.02 1.4-6.98 5.52-12.14 5.52-12.14-1.03 3.23-1.32 4.89-1.32 4.89 3.39-7.13 5.41-9.17 5.41-9.17l1.24-.71c-1.36 2.01-1.89 3.73-1.89 3.73 4.88-5.36 7.28-6.85 7.28-6.85l1.1-.53c-.54.72-.89 1.38-.89 1.38 2.33-1.44 3.91-2.32 4.93-2.86v-4.71h-52.9v27.04s.04.04.06.06c.54.63 1.29 1.1 1.96 1.64zm30.57 27.25c.36.08.84.15 1.35.22.73-2 1.66-4.12 2.77-6.28-2.7 1.45-3.92 2.57-3.92 2.57-.12 1.25-.18 2.43-.2 3.5zm4.88 1.17c1.43-.77 2.85-1.47 4.27-2.12-1.66-1.14-3.26-2.14-3.26-2.14s-1.35.84-2.95 3.5c.3.04.57.08.76.12.58.12.95.34 1.19.65zm4.43 2.2s-.89-.46-3.41.47c.17.36.26.78.31 1.23 1.75.02 3.65.19 5.61.52-.81-.75-1.65-1.5-2.51-2.23zm10.97 4.6s.03.01.04.02v-.85c-1.81-2.66-3.21-4.58-3.21-4.58s1.38 2.21 3.17 5.41zm-8.75-15.57s2.22 1.15 5.17 3.71c1.19-.38 2.39-.74 3.62-1.06v-1.22c-.22.14-.45.27-.68.37-5.27-.57-8.11-1.79-8.11-1.79zm-4.03 28.6c.07 1.39-.07 1.92.2 2.84.21.62.46 1.36.73 2.19-.5-3.09-.84-6.05-1.05-8.46-.05.08-.1.16-.14.26-.33.73.2 1.79.26 3.17zm-.47-32.24c.44-.71.89-1.43 1.36-2.13-3.37 1.69-4.76 2.77-4.79 2.81 1.67-.36 2.75-.57 3.43-.68zm-2.07 3.58c.36-.67.74-1.34 1.13-2.01-2.22 1.31-3.43 2.46-3.43 2.46 1.01-.22 1.75-.36 2.3-.45zm15.36-.89v-1.4c-1.49-.25-3.17-.5-5.02-.77 0 0 1.28 1.29 5.02 2.17zm-6.05 5.49c-1.28-.46-3.23-1.18-5.89-2.22 0 0 1.16 1.31 2.89 3.4 1-.42 1.99-.81 3-1.18zm1.98 9.65c-.34-.45-1.19-1.54-1.19-1.54s.2.43.8 1.43c.08.02.31.09.39.11zm4.07-49.49v-2.89c-2.83 2.03-4.89 4-4.89 4 1.88-.5 3.54-.85 4.89-1.1zm0-3.09v-1.4c-2.8 1.79-4.9 3.38-4.9 3.38 2.54-1.19 4.16-1.75 4.9-1.98zm0-3.24v-1.02c-1.38 1.12-2.25 1.97-2.25 1.97.81-.36 1.55-.67 2.25-.95zm0 10.52v-2.69c-5.51 1.73-9.22 3.72-10.98 4.78 4.29-1.16 8.24-1.78 10.98-2.09zm-2.64 12.2.26.6c-6.42 1.85-11.86 4.85-11.86 4.85 5.32-1.82 7.77-1.9 7.77-1.9l.23.64c-4.96 2.12-9.42 5.06-9.42 5.06 4.19-1.35 6.71-1.89 7.63-2.06-.07.18-.34.64-.6.92-4.39 2.01-7.19 4.46-7.19 4.46 2.74-.59 4.15-.79 4.85-.85 1.1-1.6 2.27-3.16 3.47-4.67 2.09-2.6 4.28-4.97 6.47-6.91.32-.28.67-.58 1.04-.88v-1.99c-9.24 1.72-15.7 4.99-15.7 4.99 7.99-2.17 13.06-2.25 13.06-2.25zm2.64-10.08v-.75c-2.96.64-4.93 1.35-4.93 1.35 2.11-.31 3.85-.49 4.93-.59zm0 24.28v-.62l-1.2.06 1.2.55zm0-17.97v-1.98c-4.6.93-7.92 2.1-7.92 2.1 4.37-.25 6.74-.2 7.92-.12zm0-3.09v-2.94c-4.03 1.31-7.4 2.68-7.4 2.68 4.03-.1 6.31.11 7.4.26z"/></g></svg>