<?xml version="1.0" encoding="UTF-8"?><svg id="a" xmlns="http://www.w3.org/2000/svg" width="240" height="237.48" viewBox="0 0 240 237.48"><defs><style>.b{fill:#ca0000;}.c{fill:#fff;}.d{fill:#8c8c8c;}</style></defs><path d="M221.05,80.31v-5.4s-26.78,0-26.78,0v2.24h-27.12c-3.48,0-6.99,1.13-9.54,3.33-1-.85-2.17-1.57-3.51-2.12-2.81-1.15-5.49-1.21-6-1.21h-19.09c-3.42,0-6.87,1.09-9.4,3.23-2.38-2.06-5.54-3.12-8.6-3.12h-6.42v-4.22h94.87V0h-26.88v12.33h-5.73c-3.52.02-7.06,1.19-9.62,3.44-2.72-2.3-6.38-3.38-9.37-3.38-2.01,0-57.05-.03-57.05-.03-3.46.01-6.95,1.14-9.49,3.34-3.65-3.13-8.45-3.37-9.44-3.37H14.46c-7.99,0-13.36,6.17-13.36,11.93v64.08h34.77v15.72h3.79v22c0,2.44.66,4.51,1.78,6.21h-.47c-6.63,0-13.34,4.11-13.34,11.96v36.82c0,2.53.72,4.67,1.91,6.4H11.39c-6.28,0-11.39,5.11-11.39,11.39v27.25c0,6.28,5.11,11.39,11.39,11.39h202.42c4.23,0,7.67-3.44,7.67-7.67v-34.69c0-4.23-3.44-7.67-7.67-7.67h-24.19c1.19-1.73,1.91-3.87,1.91-6.4v-36.78c0-6.87-5.15-10.87-10.9-11.76v-16.16h13.64s0,9.69,0,9.69c0,3.11,1.11,5.87,3.2,7.96,3.7,3.7,9.07,3.89,10.13,3.89h19.06c6.63,0,13.34-4.07,13.34-11.85v-45.72h-18.95Z"/><path class="c" d="M166.86,67.28h26.83V5.76h-15.37v12.33h-11.46s-7.64.04-7.64,6.21v36.87c0,6.06,7.64,6.11,7.64,6.11ZM174.58,30.43h3.73v24.8h-3.73v-24.8ZM41.31,76.28V18.08H14.46c-4.6,0-7.6,3.29-7.6,6.18v37c0,6.06,7.63,6.1,7.63,6.1h11.46v3.11H6.86v12.25h26.88c7.56,0,7.58-6.44,7.58-6.44ZM25.94,55.11h-3.72v-24.68h3.72v24.68ZM136.47,30.46h3.7v36.82h15.25V24.36h0c0-4.71-5.21-6.21-7.57-6.21-5.11,0-8.88,1.07-11.37,3.1v-3.1h-15.25v49.13h15.25V30.46ZM234.24,98.34v-12.27h-18.95v-5.41s-15.26,0-15.26,0v5.41h-3.79v12.27h3.79v27.69c0,6.1,7.58,6.09,7.58,6.09h19.05s7.58.02,7.58-6.09v-24.67h-15.17v18.49h-3.79v-21.51h18.95ZM193.92,95.24l.06-12.34h-26.83s-7.63,0-7.63,6.21v43.05h15.35v-21.58h19.1v-12.34h-19.1v-3.01h19.04ZM155.69,126.05v-9.23h-15.28v3.11h-3.71v-6.22h18.99v-24.61c0-6.2-7.59-6.19-7.59-6.19h-19.09s-7.59,0-7.59,6.21v36.93c0,6.09,7.6,6.11,7.6,6.11h19.08s7.59-.02,7.59-6.11ZM136.7,95.24h3.71v6.12h-3.71v-6.12ZM45.43,126.05c0,6.07,7.59,6.11,7.59,6.11h19.06s7.59-.03,7.59-6.11h0v-24.65h-15.17v18.53h-3.79v-21.63h18.96v-12.23h-19.17v-5.61s-15.27,0-15.27,0v5.61s-3.58,0-3.58,0v12.23h3.79v27.75ZM60.48,48.89h3.69v27.64c0,6.1,7.68,6.11,7.68,6.11h11.7v49.53h15.27v-36.85h3.69v36.85h15.26v-42.96c0-6.19-6.77-6.19-6.77-6.19h-12.17v-12.6h-19.39s0-24.63,0-24.63c.02-2.65-1.91-3.63-1.91-3.63,0,0,1.9-.74,1.91-2.48v-15.33c0-6.21-7.58-6.27-7.58-6.27h-26.63v58.98h15.26v-28.17ZM60.48,30.45h3.69v6.13h-3.69v-6.13ZM90.81,67.24h26.64V24.32c0-6.21-7.59-6.21-7.59-6.21h-19.05s-7.58.02-7.58,6.21v9.11h15.26v-3.01h3.7v6.11h-11.38s-7.58,0-7.58,6.1v18.5c0,6.09,7.58,6.11,7.58,6.11ZM98.49,48.83h3.7v6.19h-3.7v-6.19ZM60.03,138.03h-19.05s-7.59-.01-7.59,6.21v9.1h15.26v-3.01h3.7v6.11h-11.38s-7.58-.01-7.58,6.11v18.51c0,6.08,7.58,6.1,7.58,6.1h26.64v-42.92c0-6.22-7.59-6.21-7.59-6.21ZM52.36,174.94h-3.7v-6.19h3.7v6.19ZM90.45,174.89h-3.69v-36.92h-15.24v42.98c0,6.15,7.57,6.19,7.57,6.19h19.03s7.57-.04,7.57-6.13c0-.26,0-42.98,0-42.98h-15.24v36.85ZM128.63,141.09v-5.58s-15.26,0-15.26,0v5.58h0s-3.79,0-3.79,0v12.27h3.79v27.69h0c0,5.97,7.58,6.09,7.58,6.09h19.05s7.58-.03,7.58-6.09v-24.68h-15.16v18.49h-3.79v-21.5h18.95v-12.28h-18.95ZM178.16,138.07h-19.08s-7.6.01-7.6,6.19v36.78c0,6.1,7.6,6.1,7.6,6.1h19.08s7.61-.01,7.61-6.1v-36.78c0-6.24-7.61-6.19-7.61-6.19ZM170.48,174.95h-3.71v-24.59h3.71v24.59Z"/><path class="d" d="M21.13,56.25l-.49.48h6.97v-27.91h0l-.48.48h0v26.94h-6ZM37.98,80.16h0s.01-.02.01-.02l.03-.02s.08-.07.12-.1l-.34-.34s-.05.04-.07.06l-.02.02c-.7.46-1.35.79-1.98,1.02-.66.23-1.31.33-2.01.33H8.52v-9.02h19.09v-6.33h-13.07c-6.03,0-6.02-4.5-6.02-4.5V24.36s-.14-4.03,5.71-4.63h25.51s0,0,0,0l.48-.48h0s-.48,0-.48,0H14.23s-.03.01-.03.01h-.02c-6.22.65-6.13,5.09-6.13,5.13v36.88s0,4.99,6.5,4.99h12.59v5.36H8.04v9.99h25.67c.76,0,1.47-.12,2.17-.36.69-.24,1.37-.59,2.1-1.07ZM134.87,65.67h-11.98V19.79h12v4.9c1.18-.97,2.65-2.17,2.65-2.17,1.07-.87,2.46-1.55,4.12-2,1.76-.49,3.86-.73,6.23-.73,1.49,0,2.74.41,3.96,1.29l.35-.35c-1.31-.97-2.68-1.43-4.32-1.43-2.42,0-4.56.25-6.36.75-1.73.48-3.18,1.18-4.3,2.09,0,0-.9.74-1.86,1.52v-4.36h-12.97v46.84h12.96l-.49-.48ZM141.84,28.85l-.48.48v36.82h12.96s-.49-.49-.49-.49h0s-12,0-12,0V28.85ZM166.91,66.15h25.68l-.48-.48h-25.2s-6-.04-6-4.48V24.31c0-4.53,6-4.58,6-4.58h13.09V7.41h12.11v.02l.48-.49h0s-13.07-.01-13.07-.01v12.32h-12.61s-6.49.03-6.49,5.04v36.9c0,4.92,6.49,4.97,6.49,4.97ZM173.32,56.39l-.48.48h6.97v-28.04l-.48.48v27.08h-6.01ZM213.71,87.71h0s18.94,0,18.94,0l.49-.48h-18.95s-.48.48-.48.48ZM213.71,96.74h0s.48.48.48.48h18.94l-.49-.48h-18.93ZM220.27,121.01h-6.07s-.48.48-.48.48h7.04v-18.49h11.91s.48-.48.48-.48h-12.88s0,18.49,0,18.49ZM226.7,130.52s-19.61-.04-19.72-.04h0s-5.28.07-5.28-4.66v-29.08h-3.79v-9.03h3.79v-5.42h12l.48-.48h-12.97v5.42h-3.79v9.99h3.79v28.6c0,5.21,6.21,5.19,6.21,5.19h19.28s2.21-.1,4.09-1.32l-.35-.35c-2.13,1.15-3.74,1.18-3.74,1.18ZM192.86,94.11l-.49-.49h-19.06l.48.49h19.07ZM173.3,108.98l.48.48h19.1l-.48-.48h-19.1ZM160.7,89.13v41.91h13.08l-.48-.48h-12.11v-41.43c0-4.57,6-4.59,6-4.59h25.2l.49-.48h-25.69s-6.49,0-6.49,5.07ZM173.3,99.89h19.1l.48-.47h-19.1s-.48.47-.48.47ZM135.6,102.52l-.48.48h6.96v-9.37h-6.96l.49.48h5.99v8.4h-5.99ZM135.6,121.08l-.49.49h6.96v-3.11h12.03l.48-.48h-13v3.11h-5.99ZM148.13,130.56h-19.08s-5.98,0-5.98-4.74v-36.69c0-4.58,5.98-4.59,5.98-4.59h19.08c2.49,0,4.07,1.36,4.08,1.37l.34-.35s-1.75-1.5-4.42-1.5h-19.08s-6.46,0-6.46,5.07v36.69c0,5.22,6.42,5.22,6.42,5.22h19.12c1.38,0,2.67-.41,4.02-1.27l-.35-.35c-1.24.77-2.42,1.14-3.68,1.14ZM154.11,112.1h-18.99s.48.48.48.48h18.99l-.48-.48ZM58.9,38.22h6.94v-9.36l-.48.48v8.4s-5.98,0-5.98,0l-.48.48ZM58.88,75.46h-11.99V19.79h25s1.99-.11,4.27,1.45l.28-.39c-2.22-1.62-4.54-1.55-4.54-1.55h-25.48v56.63h12.95l-.49-.48ZM97.72,71.6h0s-19.38-.01-19.38-.01h0s-.48.47-.48.47h0c1.28,0,19.38.03,19.38.03l.49-.49ZM97.23,84.64h0s13.06,0,13.06,0c1.3,0,2.45.34,3.51,1.02l.35.24.35-.35-.44-.29c-1.15-.73-2.38-1.09-3.78-1.1h-12.57s-.49.48-.49.48ZM97.72,131.04l-.49-.49h0s-12,0-12,0c0,0,0-47.95,0-49.53h-13.33s-6.05-.01-6.05-4.49v-29.26l-.48.48v28.79c0,4.95,6.51,4.95,6.51,4.95h12.87v49.53h12.98ZM116.65,131.04l-.48-.48h-11.99v-36.85h-6.95l.49.48h5.98v36.85h12.96ZM40.86,139.6h19.05c2.21,0,3.68,1.1,3.68,1.1l.35-.35s-1.65-1.23-4.02-1.23h-19.05s-6.44,0-6.44,5.06v7.94h12.93l-.48-.51-11.97.03v-7.46c0-4.59,5.96-4.58,5.96-4.58ZM40.86,185.47s-5.96-.02-5.96-4.48v-18.51c0-4.48,5.96-4.48,5.96-4.48h12.99v-9.38h-6.95l.48.48h5.98v8.41h-12.51s-6.44,0-6.44,4.96v18.51c0,4.95,6.44,4.96,6.44,4.96h25.42l-.48-.5-24.94.02ZM47.35,176.05l-.48.48h6.99v-9.47h-6.98l.49.48h6v8.5h-6.02ZM97.3,32.28h.04v-.02l-.48-.46h-11.97v-7.46c0-4.56,5.96-4.58,5.96-4.58h19.01c2.23,0,3.68,1.09,3.68,1.09l.02-.02s.02.02.02.02l.35-.35s-1.64-1.23-4.03-1.23h-19.09s-6.44,0-6.44,5.06v7.94h12.93ZM90.81,66.11h25.46l-.48-.49h-24.94s-5.96,0-5.96-4.47v-18.5c0-4.47,5.96-4.48,5.96-4.48h13v-9.39h-6.99l.48.48h5.99v8.42h-12.52s-6.44,0-6.44,4.96v18.5c0,4.95,6.44,4.96,6.44,4.96ZM97.34,56.21h-.04l-.48.47h0s.04.01.04.01h6.99v-9.47h-7.02l.49.48h6.01v8.5h-5.98ZM98,185.51h-19.03s-5.94-.06-5.94-4.5v-41.42h11.98s.48-.48.48-.48h-12.95s0,41.9,0,41.9c0,4.95,6.43,4.99,6.43,4.99h19.03c1.9,0,3.44-.9,4.06-1.3l-.34-.35c-.56.36-1.81,1.17-3.71,1.17ZM91.96,139.17h-.48v36.86h-5.98l-.48.48h6.95v-36.85h11.99s.49-.48.49-.48h0s-.49,0-.49,0h-11.99ZM126.89,142.78h18.94l.48-.49h-18.94l-.48.49ZM146.31,152.29l-.48-.48h-18.93l.49.48h18.93ZM133.45,176.08h-6.08l-.48.48h7.04s0-18.49,0-18.49h11.9l.48-.47h-12.87s0,18.48,0,18.48ZM139.88,185.58h-17.65s-7.35-.13-7.35-4.7v-29.08h-3.79v-9.02h3.79v-5.33h12l.48-.48h-12.96v5.33h-3.79v9.99h3.79v28.6c0,5.07,7.81,5.19,7.81,5.19h17.67c.73,0,2.62-.4,4.08-1.31l-.35-.35c-1.84,1.1-3.74,1.18-3.74,1.18ZM77.92,87.23h-18.47s-.48.48-.48.48h0s18.94,0,18.94,0l.49-.48h-.48ZM77.92,97.22h.47l-.49-.48h-18.93s.48.48.48.48h18.47ZM66.01,121.49v-18.49h11.91s.48-.48.48-.48h-12.88s0,18.49,0,18.49h-6.07s-.48.48-.48.48h7.04ZM75.7,129.34c-2.13,1.15-3.73,1.18-3.73,1.18,0,0-19.61-.04-19.72-.04h0s-5.28.07-5.28-4.66v-29.08h-3.79v-9.03h3.79v-5.42h12l.49-.48h-12.97v5.42h-3.79v9.99h3.79v28.6c0,5.21,6.21,5.19,6.21,5.19h19.28s2.21-.1,4.09-1.32l-.35-.35ZM182.15,140.97l.34-.34s-1.79-1.48-4.41-1.48h-19.11s-6.43-.03-6.43,5.12c0,.88,0,35.59,0,36.06,0,5.63,7.24,5.64,7.24,5.62h18.32s2.44-.03,4.16-1.36l-.34-.34c-1.74,1.24-3.81,1.22-3.81,1.22h-18.32s-6.75,0-6.75-5.14v-36.12c0-4.6,5.95-4.57,5.95-4.57h19.11c2.5,0,4.06,1.34,4.07,1.34ZM165.54,176.03l-.48.48h6.96v-27.83h-6.95l.48.48h5.99v26.87h-5.99Z"/><path class="b" d="M119.37,220.73h-17.72c-.07,0-.13-.06-.13-.13v-25.48c0-1.05-.86-1.91-1.91-1.91h-8.35c-1.05,0-1.91.86-1.91,1.91v34.69c0,1.05.86,1.91,1.91,1.91h28.11c1.05,0,1.91-.86,1.91-1.91v-7.17c0-1.05-.86-1.91-1.91-1.91ZM38.64,193.21H11.39c-3.1,0-5.63,2.52-5.63,5.63v27.25c0,3.1,2.52,5.63,5.63,5.63h27.26c3.1,0,5.63-2.52,5.63-5.63v-27.25c0-3.1-2.52-5.63-5.63-5.63ZM32.11,219.54c0,.65-.53,1.18-1.18,1.18h-11.82c-.65,0-1.18-.53-1.18-1.18v-14.62c0-.65.53-1.18,1.18-1.18h11.82c.65,0,1.18.53,1.18,1.18v14.62ZM83.4,193.21h-7.73c-1.05,0-1.91.86-1.91,1.91v15.29l-16.15-16.21c-.56-.56-1.58-.98-2.37-.98h-5.05c-1.05,0-1.91.86-1.91,1.91v34.69c0,1.05.86,1.91,1.91,1.91h7.73c1.05,0,1.91-.86,1.91-1.91v-15.36l16.15,16.28c.56.56,1.58.99,2.37.99h5.06c1.05,0,1.91-.86,1.91-1.91v-34.69c0-1.05-.86-1.91-1.91-1.91ZM213.81,203.74c1.05,0,1.91-.86,1.91-1.91v-6.71c0-1.05-.86-1.91-1.91-1.91h-29.44c-1.05,0-1.91.86-1.91,1.91v34.69c0,1.05.86,1.91,1.91,1.91h29.44c1.05,0,1.91-.86,1.91-1.91v-7.17c0-1.05-.86-1.91-1.91-1.91h-19.18v-3.25h10.33c1.05,0,1.91-.86,1.91-1.91v-6.71c0-1.05-.86-1.91-1.91-1.91h-10.33v-3.21h19.18ZM176.56,193.21h-7.74c-1.05,0-1.91.86-1.91,1.91v15.29l-16.15-16.21c-.56-.56-1.58-.99-2.37-.99h-5.05c-1.05,0-1.91.86-1.91,1.91v34.69c0,1.05.86,1.91,1.91,1.91h7.73c1.05,0,1.91-.86,1.91-1.91v-15.36l16.15,16.28c.56.56,1.58.99,2.37.99h5.06c1.05,0,1.91-.86,1.91-1.91v-34.69c0-1.05-.86-1.91-1.91-1.91ZM135.49,193.21h-8.35c-1.05,0-1.91.86-1.91,1.91v34.69c0,1.05.86,1.91,1.91,1.91h8.35c1.05,0,1.91-.86,1.91-1.91v-34.69c0-1.05-.86-1.91-1.91-1.91Z"/><path class="c" d="M225.2,194.04c.55,0,.82.23.82.69,0,.38-.21.6-.63.65l.69,1.06h-.4l-.65-1.03h-.4v1.03h-.37v-2.4h.95ZM225.05,195.11c.23,0,.38-.03.47-.09.08-.06.13-.16.13-.3,0-.25-.17-.37-.51-.37h-.52v.76h.43Z"/><path class="c" d="M225.05,197.31c-1.14,0-2.07-.93-2.07-2.07s.93-2.07,2.07-2.07,2.07.93,2.07,2.07-.93,2.07-2.07,2.07ZM225.05,193.49c-.96,0-1.75.78-1.75,1.75s.78,1.75,1.75,1.75,1.75-.78,1.75-1.75-.78-1.75-1.75-1.75Z"/></svg>